<?xml version="1.0" encoding="UTF-8"?>
<svg id="Layer_1" data-name="Layer 1" xmlns="http://www.w3.org/2000/svg" viewBox="0 0 1333.1 323.86">
  <defs>
    <style>
      .cls-1 {
        opacity: .96;
      }

      .cls-1, .cls-2, .cls-3 {
        stroke: #000;
        stroke-miterlimit: 10;
      }

      .cls-2 {
        opacity: .99;
      }

      .cls-4 {
        font-family: CanelaTrial-ThinItalic, 'Canela Trial';
        font-size: 114.76px;
        font-style: italic;
        font-weight: 200;
      }

      .cls-5 {
        letter-spacing: 0em;
      }
    </style>
  </defs>
  <path class="cls-1" d="M.45,134.08l4.34-9.28c.14-.29.4-.48.69-.48h61.64c.43,0,.79.41.79.91v5.3c0,.33-.15.63-.4.79-1.63,1.02-7.73,5.13-9.7,10.64s12.89,69.11,16.27,83.32c.2.86,1.25.9,1.5.05,3.57-12.06,17.76-60.82,22.92-90.95.03-.2.13-.38.27-.51l14.51-13.92c.44-.42,1.1-.18,1.26.44l27.58,108.64c.22.87,1.29.87,1.51,0l16.18-64.51s.01-.05.02-.08c.15-.98,3.07-20.76-3.92-26.98-3.58-3.19-5.78-3.85-7.09-3.71-.59.06-1-.69-.75-1.31l3.06-7.59c.13-.32.41-.52.71-.52h44.34c.43,0,.79.41.79.91v5.96c0,.37-.19.71-.49.84-2.13.95-10.61,5.4-15.15,17.81-5.07,13.85-39.34,153.41-41.3,161.39-.06.24-.19.42-.38.54l-15.8,9.81c-.44.27-.99.01-1.13-.54l-25.2-98.47c-.21-.81-1.18-.9-1.48-.12-8.29,22.06-18.66,81.9-19.59,87.27-.04.26-.18.46-.37.59l-16.76,11.23c-.44.29-1,.04-1.15-.52-13.71-51.34-27.19-103.01-40.45-155.04-.4-1.59-.63-8.15-3.91-15.39-3.73-8.22-9.27-13.41-13.36-16.51"/>
  <path class="cls-3" d="M294.33,299.94l-49.63-172.74c-.09-.33-.46-.44-.7-.22l-29.74,27.19c-.2.18-.2.48-.03.69,5.49,6.39-.84,23.19-.84,23.19,0,0-26.3,84.77-32.63,109.15-5.81,22.39-19.94,27.49-22.2,28.17-.19.06-.31.24-.31.46v5.38c0,.26.2.48.44.48h49.57c.19,0,.36-.14.42-.34l2.53-9.21c.08-.29-.12-.59-.39-.61-19.61-1.8-15.64-11.59-15.64-11.59,0,0,5.56-19.95,7.84-31.03,1.96-9.56,4.12-12.11,4.67-12.63.08-.07.16-.11.26-.11,1.75.02,20.66.28,26.93.28,6.58,0,7.84,10.25,7.84,10.25,0,0,.25,1.39,4.55,19.12,4.3,17.73.51,21.89-3.54,24.38-3.49,2.15-8.3,3.68-9.55,4.06-.19.06-.31.24-.31.46v6.5c0,.26.2.48.44.48h70.56c.19,0,.36-.14.42-.34l1.8-6.27c.07-.25-.06-.51-.29-.59-9.77-3.24-12.47-14.55-12.47-14.55ZM231.45,238.72h-15.86c-1.34,0-2.29-1.42-1.9-2.82l7.93-28.13c.58-2.04,3.22-2.04,3.79,0l7.93,28.13c.39,1.4-.56,2.82-1.9,2.82Z"/>
  <path class="cls-3" d="M383.22,177.9h19.33c.54,0,.97-.52.97-1.17v-42.41c0-.45-.21-.85-.54-1.05-3.56-2.07-24.17-13.04-48.98-5.4-27.3,8.4-40.63,30.93-43.49,50.03-2.86,19.09,1.27,34.97,9.21,42.88,7.94,7.91,39.68,27.77,39.68,27.77,0,0,19.05,9.55,19.05,30.93,0,19.9-14.41,27.45-15.52,28.29-.09.07,6.27-.78,6.17-.75-2.37.67-33.28,8.36-31.64-45.44.02-.65-.4-1.21-.94-1.22l-23.1-.7c-.55-.02-1,.51-1,1.17v46.31c0,.4,0-14.33.45.99.13,4.26,22.62,15.23,42.4,15.23,29.94,0,41.02-12.24,48.25-34.32,5.56-17,10.16-44.3-2.22-62.63-12.38-18.33-43.49-33.99-43.49-33.99,0,0-23.45-13.32-11.74-38.57,10.36-22.36,25.7-8.83,26.91-7.71.06.05.09.09.14.16.8,1.13,9.07,13.23,9.15,30.44,0,.64.42,1.17.96,1.17Z"/>
  <path class="cls-2" d="M417.47,128.01v51.6c0,.6.39,1.1.89,1.14,2.6.24,10.42-.31,17.57-13.58,8.73-16.2,8.39-24.5,16.79-27.66s9.6,9.8,9.73,10.98c0,.06,0,.11,0,.16l-1.68,148.11s.97,14.39-13.17,15.37c-.52.04-.93.52-.93,1.13v5.28c0,.63.43,1.14.97,1.14h64.87c.54,0,.97-.51.97-1.14v-4.65c0-.67-.47-1.2-1.04-1.14-2.93.3-11.05-.41-11.05-17.57,0-20.94.67-148.09.67-148.19,0,0,0,0,0,0,0-.04.68-15.4,8.73-8.69,8.06,6.72,17.46,12.61,17.46,30.82v14.62l4.21-1.4c2.69-.89,5.15-2.5,7.43-4.41,6.26-5.26,5.28-5.74,6.16-7.1.22-.35,0,.08,0,0v-44.83c0-.63-.43-1.14-.97-1.14h-126.65c-.54,0-.97.51-.97,1.14Z"/>
  <path class="cls-3" d="M558.9,126.87l-2.63,7.39s12.48.58,12.64,22.95c.16,22.37,0,141.97,0,141.97,0,0-3.78,12.45-14.45,14.98v5.45h112.81s7.22-42.01,6.4-57.96c0,0-3.78-.58-12.64,1.94,0,0-8.37,36.95-19.05,43.18-10.67,6.22-19.7,6.03-29.89-.19-10.18-6.22-5.75-52.12-5.91-64.57-.16-12.45,3.45-16.14,7.06-15.95,3.61.19,17.73-2.14,20.2,18.48s15.11,7.2,15.6-1.94c.49-9.14.49-51.15.49-51.15,0,0-7.06-16.53-13.3,1.56-6.24,18.09-6.24,18.28-11.49,19.25-5.25.97-15.93.97-16.75-4.47s-.33-62.43-.33-62.43c0,0-.49-10.11,12.15-7.78,12.64,2.33,23.32,5.06,28.24,21s4.76,13.22,7.72,23.34c2.96,10.11,13.63-.78,13.79-7.78.16-7,0-47.26,0-47.26h-110.67Z"/>
  <path class="cls-3" d="M789.34,125.2h66.42c.57,0,1.03.52,1.03,1.16v7.37c0,.56-.36,1.04-.85,1.14-3.26.69-14.84,4.26-15.12,19.98-.32,18.01-.96,142.39-.98,146.34,0,.07,0,.13.02.2.18,1.09,2.05,10.21,14,11.24,12.71,1.1,21.94-7.32,26.77-19.04,4.34-10.5,11.07-31.59,12.42-35.85.15-.46.53-.76.97-.76h10.48c.62,0,1.1.61,1.02,1.31l-6.9,60.29c-.07.58-.5,1.01-1.02,1.01h-112.45c-.57,0-1.03-.52-1.03-1.16v-3.08c0-.65.48-1.17,1.06-1.16,2.59.04,9.18-1.16,11-14.01,2.28-16.11,3.26-149,3.26-149,0,0,.62-14.97-10.53-17.75-.5-.12-.86-.61-.84-1.18l.24-5.95c.03-.62.48-1.11,1.03-1.11Z"/>
  <path class="cls-3" d="M1065.59,128.23h39.12c.83,0,1.6.51,2.03,1.36l52.26,102.06c1.25,2.44,4.4,1.38,4.4-1.48v-70.83s.16-15.95-7.33-20.03-6.19-4.47-6.19-4.47l4.83-6.95c.45-.65,1.12-1.03,1.83-1.03h37.57c1.31,0,2.37,1.27,2.37,2.83v3.72c0,.59-.34,1.1-.81,1.26-2.61.85-12.57,3.22-13.2,18.53-.78,19.09-1.02,132.85-.84,144.72,0,.62-.15,1.22-.46,1.71l-13.17,21.62c-.99,1.61-3.01,1.53-3.91-.14l-67.54-119.08c-1.28-2.38-4.36-1.3-4.37,1.52l-.3,98.23c0,.22.02.43.06.65.34,1.69,2.32,9.06,11.79,11.71,1.39.39,2.14,2.19,1.64,3.78l-.69,2.16c-.35,1.1-1.23,1.83-2.22,1.83h-39.33c-1.31,0-2.37-1.27-2.37-2.83h0c0-1.19.62-2.24,1.56-2.65,3.53-1.57,11.84-6.16,11.97-14.74.16-10.89,2.61-136.52,2.61-136.52,0,0,.16-18.09-7.01-22.36-3.42-2.04-5.66-3.32-7.06-4.1-1.15-.64-1.67-2.25-1.18-3.65l1.77-5.09c.37-1.06,1.23-1.75,2.19-1.75Z"/>
  <path class="cls-3" d="M1265.25,322.88c36.01.5,54.74-37.11,60.44-51.26,9.42-23.38,10.11-76.91-3.57-109.25-13.48-31.84-28.03-35.49-47.72-35.49-.03,0-.04,0-.06,0h-70.48c-.41,0-.77.32-.89.8l-1.45,5.71c-.16.61.13,1.26.64,1.42.81.27,2.05.69,3.94,1.33,7.5,2.56,7.33,13.01,7.33,13.01,0,0,0,143.16-.49,150.65-.44,6.71-13.27,15.15-15.96,16.85-.31.2-.49.58-.49,1v4.09c0,.63.42,1.13.94,1.13,0,0,37.28-.42,67.83,0ZM1291.32,273.58c-6.04,24.01-18.28,35.35-19.46,36.4-.07.06-.12.09-.2.13-1.35.63-15.3,6.81-20.1-5.57-5.05-13.01-8.47-163.97,3.42-163.67,0,0,27.21-5.52,34.38,30.76,7.17,36.28,8.31,76.71,1.96,101.95Z"/>
  <path class="cls-3" d="M1041.6,299.94l-49.63-172.74c-.09-.33-.46-.44-.7-.22l-29.74,27.19c-.2.18-.2.48-.03.69,5.49,6.39-.84,23.19-.84,23.19,0,0-26.3,84.77-32.63,109.15-5.81,22.39-19.94,27.49-22.2,28.17-.19.06-.31.24-.31.46v5.38c0,.26.2.48.44.48h49.57c.19,0,.36-.14.42-.34l2.53-9.21c.08-.29-.12-.59-.39-.61-19.61-1.8-15.64-11.59-15.64-11.59,0,0,5.56-19.95,7.84-31.03,1.96-9.56,4.12-12.11,4.67-12.63.08-.07.16-.11.26-.11,1.75.02,20.66.28,26.93.28,6.58,0,7.84,10.25,7.84,10.25,0,0,.25,1.39,4.55,19.12,4.3,17.73.51,21.89-3.54,24.38-3.49,2.15-8.3,3.68-9.55,4.06-.19.06-.31.24-.31.46v6.5c0,.26.2.48.44.48h70.56c.19,0,.36-.14.42-.34l1.8-6.27c.07-.25-.06-.51-.29-.59-9.77-3.24-12.47-14.55-12.47-14.55ZM978.71,238.72h-15.86c-1.34,0-2.29-1.42-1.9-2.82l7.93-28.13c.58-2.04,3.22-2.04,3.79,0l7.93,28.13c.39,1.4-.56,2.82-1.9,2.82Z"/>
  <text class="cls-4" transform="translate(581.36 99.38) scale(1.07 1)"><tspan class="cls-5" x="0" y="0">T</tspan><tspan x="63.23" y="0">he</tspan></text>
</svg>